{
  "accessors": [
    {
      "bufferView": 2,
      "componentType": 5126,
      "count": 65532,
      "max": [
        0.9485129714012146,
        0.24264700710773468,
        0.854237973690033
      ],
      "min": [
        -0.9474239945411682,
        -0.24292300641536713,
        -0.8559229969978333
      ],
      "type": "VEC3"
    },
    {
      "bufferView": 2,
      "byteOffset": 786384,
      "componentType": 5126,
      "count": 65532,
      "max": [
        0.9999819993972778,
        0.9999985694885254,
        0.9999988079071045
      ],
      "min": [
        -0.999990701675415,
        -1.0,
        -0.9999986886978149
      ],
      "type": "VEC3"
    },
    {
      "bufferView": 1,
      "componentType": 5126,
      "count": 65532,
      "max": [
        0.9975810050964355,
        0.9986820220947266
      ],
      "min": [
        0.0013180000241845846,
        0.0013179779052734375
      ],
      "type": "VEC2"
    },
    {
      "bufferView": 0,
      "componentType": 5125,
      "count": 289869,
      "type": "SCALAR"
    },
    {
      "bufferView": 2,
      "byteOffset": 1572768,
      "componentType": 5126,
      "count": 45024,
      "max": [
        0.948665976524353,
        0.24210099875926971,
        0.2995609939098358
      ],
      "min": [
        -0.950456976890564,
        -0.24076299369335175,
        -0.856082022190094
      ],
      "type": "VEC3"
    },
    {
      "bufferView": 2,
      "byteOffset": 2113056,
      "componentType": 5126,
      "count": 45024,
      "max": [
        0.9999969005584717,
        0.9999800324440002,
        0.9999988079071045
      ],
      "min": [
        -0.999984860420227,
        -0.9999990463256836,
        -0.9999959468841553
      ],
      "type": "VEC3"
    },
    {
      "bufferView": 1,
      "byteOffset": 524256,
      "componentType": 5126,
      "count": 45024,
      "max": [
        0.9976059794425964,
        0.9986820220947266
      ],
      "min": [
        0.0013180000241845846,
        0.001363992691040039
      ],
      "type": "VEC2"
    },
    {
      "bufferView": 0,
      "byteOffset": 1159476,
      "componentType": 5125,
      "count": 152361,
      "type": "SCALAR"
    }
  ],
  "asset": {
    "extras": {
      "author": "whitelie (https://sketchfab.com/whitelie)",
      "license": "SKETCHFAB Standard (https://sketchfab.com/licenses)",
      "source": "https://sketchfab.com/3d-models/777-aircraft-d519c08c76734588b88316607c3876a6",
      "title": "777 aircraft"
    },
    "generator": "Sketchfab-17.3.0",
    "version": "2.0"
  },
  "bufferViews": [
    {
      "buffer": 0,
      "byteLength": 1768920,
      "name": "floatBufferViews",
      "target": 34963
    },
    {
      "buffer": 0,
      "byteLength": 884448,
      "byteOffset": 1768920,
      "byteStride": 8,
      "name": "floatBufferViews",
      "target": 34962
    },
    {
      "buffer": 0,
      "byteLength": 2653344,
      "byteOffset": 2653368,
      "byteStride": 12,
      "name": "floatBufferViews",
      "target": 34962
    }
  ],
  "buffers": [
    {
      "byteLength": 5306712,
      "uri": "scene.bin"
    }
  ],
  "images": [
    {
      "uri": "textures/material_0_baseColor.jpeg"
    }
  ],
  "materials": [
    {
      "doubleSided": true,
      "name": "material_0",
      "pbrMetallicRoughness": {
        "baseColorTexture": {
          "index": 0
        },
        "metallicFactor": 0.0,
        "roughnessFactor": 0.8
      }
    }
  ],
  "meshes": [
    {
      "name": "Object_0",
      "primitives": [
        {
          "attributes": {
            "NORMAL": 1,
            "POSITION": 0,
            "TEXCOORD_0": 2
          },
          "indices": 3,
          "material": 0,
          "mode": 4
        }
      ]
    },
    {
      "name": "Object_1",
      "primitives": [
        {
          "attributes": {
            "NORMAL": 5,
            "POSITION": 4,
            "TEXCOORD_0": 6
          },
          "indices": 7,
          "material": 0,
          "mode": 4
        }
      ]
    }
  ],
  "nodes": [
    {
      "children": [
        1
      ],
      "matrix": [
        1.0,
        0.0,
        0.0,
        0.0,
        0.0,
        2.220446049250313e-16,
        -1.0,
        0.0,
        0.0,
        1.0,
        2.220446049250313e-16,
        0.0,
        0.0,
        0.0,
        0.0,
        1.0
      ],
      "name": "Sketchfab_model"
    },
    {
      "children": [
        2
      ],
      "name": "root"
    },
    {
      "children": [
        3
      ],
      "matrix": [
        1.0,
        0.0,
        0.0,
        0.0,
        0.0,
        2.220446049250313e-16,
        1.0,
        0.0,
        0.0,
        -1.0,
        2.220446049250313e-16,
        0.0,
        0.0,
        0.0,
        0.0,
        1.0
      ],
      "name": "GLTF_SceneRootNode"
    },
    {
      "children": [
        4
      ],
      "name": "_1"
    },
    {
      "children": [
        5,
        6
      ],
      "name": "mesh_0_0"
    },
    {
      "mesh": 0,
      "name": "Object_5"
    },
    {
      "mesh": 1,
      "name": "Object_6"
    }
  ],
  "samplers": [
    {
      "magFilter": 9729,
      "minFilter": 9987,
      "wrapS": 10497,
      "wrapT": 10497
    }
  ],
  "scene": 0,
  "scenes": [
    {
      "name": "Sketchfab_Scene",
      "nodes": [
        0
      ]
    }
  ],
  "textures": [
    {
      "sampler": 0,
      "source": 0
    }
  ]
}
